HIERARCHY
ROOT Hips
{
	OFFSET -0.001795 -0.223333 0.028219
	CHANNELS 6 Xposition Yposition Zposition Zrotation Yrotation Xrotation 
	JOINT LeftUpLeg
	{
		OFFSET 0.069520 -0.091406 -0.006815
		CHANNELS 3 Zrotation Yrotation Xrotation
		JOINT LeftLeg
		{
			OFFSET 0.034277 -0.375199 -0.004496
			CHANNELS 3 Zrotation Yrotation Xrotation
			JOINT LeftFoot
			{
				OFFSET -0.013596 -0.397961 -0.043693
				CHANNELS 3 Zrotation Yrotation Xrotation
				JOINT LeftToe
				{
					OFFSET 0.026358 -0.055791 0.119288
					CHANNELS 3 Zrotation Yrotation Xrotation
					End Site
					{
						OFFSET 0.000000 0.000000 0.000000
					}
				}
			}
		}
	}
	JOINT RightUpLeg
	{
		OFFSET -0.067670 -0.090522 -0.004320
		CHANNELS 3 Zrotation Yrotation Xrotation
		JOINT RightLeg
		{
			OFFSET -0.038290 -0.382569 -0.008850
			CHANNELS 3 Zrotation Yrotation Xrotation
			JOINT RightFoot
			{
				OFFSET 0.015774 -0.398415 -0.042312
				CHANNELS 3 Zrotation Yrotation Xrotation
				JOINT RightToe
				{
					OFFSET -0.025372 -0.048144 0.123348
					CHANNELS 3 Zrotation Yrotation Xrotation
					End Site
					{
						OFFSET 0.000000 0.000000 0.000000
					}
				}
			}
		}
	}
	JOINT Spine
	{
		OFFSET -0.002533 0.108963 -0.026696
		CHANNELS 3 Zrotation Yrotation Xrotation
		JOINT Spine1
		{
			OFFSET 0.005487 0.135180 0.001092
			CHANNELS 3 Zrotation Yrotation Xrotation
			JOINT Spine2
			{
				OFFSET 0.001457 0.052922 0.025425
				CHANNELS 3 Zrotation Yrotation Xrotation
				JOINT Neck
				{
					OFFSET -0.002778 0.213870 -0.042857
					CHANNELS 3 Zrotation Yrotation Xrotation
					JOINT Head
					{
						OFFSET 0.005152 0.064970 0.051349
						CHANNELS 3 Zrotation Yrotation Xrotation
						End Site
						{
							OFFSET 0.000000 0.000000 0.000000
						}
					}
				}
				JOINT LeftShoulder
				{
					OFFSET 0.078845 0.121749 -0.034090
					CHANNELS 3 Zrotation Yrotation Xrotation
					JOINT LeftArm
					{
						OFFSET 0.090977 0.030469 -0.008868
						CHANNELS 3 Zrotation Yrotation Xrotation
						JOINT LeftForeArm
						{
							OFFSET 0.259612 -0.012772 -0.027456
							CHANNELS 3 Zrotation Yrotation Xrotation
							JOINT LeftHand
							{
								OFFSET 0.249234 0.008986 -0.001171
								CHANNELS 3 Zrotation Yrotation Xrotation
								End Site
								{
									OFFSET 0.000000 0.000000 0.000000
								}
							}
						}
					}
				}
				JOINT RightShoulder
				{
					OFFSET -0.081759 0.118833 -0.038615
					CHANNELS 3 Zrotation Yrotation Xrotation
					JOINT RightArm
					{
						OFFSET -0.096012 0.032551 -0.009143
						CHANNELS 3 Zrotation Yrotation Xrotation
						JOINT RightForeArm
						{
							OFFSET -0.253742 -0.013329 -0.021401
							CHANNELS 3 Zrotation Yrotation Xrotation
							JOINT RightHand
							{
								OFFSET -0.255298 0.007772 -0.005559
								CHANNELS 3 Zrotation Yrotation Xrotation
								End Site
								{
									OFFSET 0.000000 0.000000 0.000000
								}
							}
						}
					}
				}
			}
		}
	}
}
MOTION
Frames: 17
Frame Time: 0.050000
0.189479 0.518778 0.655276 -4.010908 -4.572015 -9.293251 15.683274 3.428825 -48.236122 -31.491894 43.920130 102.967535 23.499465 47.750098 -5.405893 0.000000 0.000000 0.000000 -4.549366 7.052860 -72.255052 55.297623 -40.461831 64.593941 -32.259262 -56.978447 11.636799 0.000000 0.000000 0.000000 1.024080 -2.124876 65.967545 4.283219 -1.738943 -6.068100 -3.556241 1.158980 5.118501 10.521121 -1.203162 -39.647399 0.000000 0.000000 0.000000 8.304862 -43.492177 11.813058 2.537104 -19.153939 -0.994612 11.743601 -6.776670 -0.433413 0.000000 0.000000 0.000000 20.562335 36.467643 18.911505 24.915640 22.570808 1.542354 -11.313468 24.428179 -1.537202 0.000000 0.000000 0.000000 
0.189848 0.548093 0.656999 -4.024296 -4.536218 -7.706409 14.753828 2.813984 -46.213069 -31.407920 40.810906 98.199094 22.093299 45.501572 -6.684850 0.000000 0.000000 0.000000 -2.863535 7.871277 -69.988562 49.426712 -36.683763 66.579335 -26.737232 -53.090620 5.569270 0.000000 0.000000 0.000000 0.480429 -1.723225 63.430583 4.251147 -1.752676 -5.508259 -3.352454 0.678806 4.523297 11.245117 -1.647225 -38.717002 0.000000 0.000000 0.000000 7.404627 -44.085673 12.492050 2.281392 -18.699765 -0.962768 12.355875 -6.917820 -0.469978 0.000000 0.000000 0.000000 21.232405 36.257532 18.946250 25.972096 20.982177 1.392253 -11.626577 25.244345 -1.650204 0.000000 0.000000 0.000000 
0.190761 0.583665 0.661151 -3.529341 -4.505045 -6.432770 13.114562 1.891679 -43.085232 -31.583628 37.186264 91.470369 20.991398 44.510848 -9.453724 0.000000 0.000000 0.000000 -1.643685 8.179735 -66.910573 43.919437 -32.252858 67.273476 -22.987311 -48.963705 2.490110 0.000000 0.000000 0.000000 0.310654 -1.550165 60.790663 4.089384 -1.641129 -6.050986 -4.030011 -0.256503 5.019225 11.247570 -1.866835 -38.054399 0.000000 0.000000 0.000000 5.551304 -43.577489 13.139959 1.170254 -18.656742 -0.912918 13.500275 -8.613187 -0.670134 0.000000 0.000000 0.000000 21.957112 35.594872 18.555625 27.358026 18.955560 1.140631 -10.646420 26.935333 -1.564697 0.000000 0.000000 0.000000 
0.192252 0.626572 0.667577 -2.944321 -5.027208 -5.439690 11.892360 1.307247 -39.186725 -31.624683 33.454763 83.538787 19.839677 43.216062 -12.049918 0.000000 0.000000 0.000000 0.076702 8.717757 -62.761399 37.833234 -26.526913 66.805360 -18.437398 -42.702089 -1.179325 0.000000 0.000000 0.000000 -0.110458 -1.065798 56.794032 3.848634 -1.584318 -5.296920 -4.145862 -0.498854 4.860411 11.304606 -2.067998 -37.199447 0.000000 0.000000 0.000000 2.549146 -42.716390 14.062613 -1.365968 -18.650508 -0.798122 14.182951 -11.527109 -0.975632 0.000000 0.000000 0.000000 21.440202 33.455503 16.980168 30.611208 17.603641 1.116427 -10.237848 29.190173 -1.618128 0.000000 0.000000 0.000000 
0.194108 0.671707 0.675977 -2.413906 -4.468339 -4.250119 9.397145 0.207371 -35.389825 -30.226703 28.327558 76.030518 17.731366 40.306698 -15.671452 0.000000 0.000000 0.000000 1.515826 8.516362 -58.357251 32.423586 -21.138042 64.305067 -16.441121 -38.786143 -1.528323 0.000000 0.000000 0.000000 -0.051204 -1.190081 52.749261 3.954268 -1.573395 -6.033360 -4.415276 -1.111934 6.188653 10.551997 -1.996299 -36.561056 0.000000 0.000000 0.000000 -0.141179 -40.407774 14.260010 -4.951727 -19.687557 -0.664271 15.885302 -14.630814 -1.466465 0.000000 0.000000 0.000000 21.280297 32.006893 15.943909 32.311250 15.911248 0.774115 -9.256502 30.325926 -1.448936 0.000000 0.000000 0.000000 
0.196262 0.717280 0.685814 -1.710912 -4.497460 -3.443266 7.360816 -0.454370 -31.766816 -29.201111 24.277876 68.283737 16.722852 37.243939 -14.254650 0.000000 0.000000 0.000000 2.630271 8.168863 -53.513078 27.902419 -16.312776 60.564755 -14.055926 -33.663452 -1.447686 0.000000 0.000000 0.000000 -0.273808 -1.008913 48.280846 3.584203 -1.487537 -4.720705 -4.412033 -0.627953 5.667248 10.381940 -2.142183 -34.784953 0.000000 0.000000 0.000000 -2.489671 -38.589257 14.365705 -8.995391 -20.351721 -0.421855 15.651256 -17.597280 -1.745600 0.000000 0.000000 0.000000 21.089635 29.722779 14.684188 34.583407 14.140882 0.408782 -8.390542 32.481964 -1.312773 0.000000 0.000000 0.000000 
0.199108 0.758769 0.696422 -1.130214 -4.400060 -2.603113 5.017729 -1.057902 -28.178311 -27.399627 20.116868 60.959270 14.739885 32.747269 -14.744126 0.000000 0.000000 0.000000 3.659768 7.826238 -49.453363 23.409058 -12.127596 56.740992 -13.026823 -30.563522 1.846763 0.000000 0.000000 0.000000 -0.112218 -1.039826 44.358172 3.603366 -1.451725 -5.377558 -4.960590 0.033489 6.950339 10.611439 -2.229403 -34.728492 0.000000 0.000000 0.000000 -4.285337 -36.249002 13.913542 -13.249885 -20.943106 -0.157662 15.514746 -20.052487 -1.991884 0.000000 0.000000 0.000000 20.501296 27.674062 13.598970 36.137766 13.186241 0.044472 -8.387991 32.773727 -1.281985 0.000000 0.000000 0.000000 
0.202546 0.795531 0.707454 -0.478897 -3.606307 -1.755916 2.009157 -1.664070 -24.535173 -24.627187 15.643302 54.185864 13.517130 29.883890 -14.768776 0.000000 0.000000 0.000000 4.011267 7.030288 -45.411235 19.995700 -9.049529 51.095159 -11.169300 -26.503601 2.900267 0.000000 0.000000 0.000000 0.672455 -1.393355 40.250048 3.454439 -1.381234 -5.264358 -5.670903 0.592453 7.068380 11.486223 -2.657659 -33.755933 0.000000 0.000000 0.000000 -6.221104 -34.333730 13.568229 -17.177622 -20.771744 0.088205 13.746763 -21.416320 -1.814768 0.000000 0.000000 0.000000 21.160291 25.081013 12.541596 36.724664 11.913302 -0.403164 -6.979642 32.478366 -0.831773 0.000000 0.000000 0.000000 
0.206319 0.824715 0.718726 -0.250165 -3.603161 -1.782772 -0.348679 -1.820910 -20.244681 -21.888083 12.214058 47.897191 12.535843 27.392499 -14.099484 0.000000 0.000000 0.000000 4.593129 6.538662 -41.597269 18.099175 -7.226617 46.335314 -9.653924 -23.147000 6.040340 0.000000 0.000000 0.000000 1.589412 -1.614020 37.001819 2.762559 -1.086785 -5.267506 -5.605941 1.544838 7.577783 11.069431 -2.449541 -33.473287 0.000000 0.000000 0.000000 -8.547448 -31.464103 12.730874 -20.015627 -21.790610 0.409504 11.724625 -22.405654 -1.523982 0.000000 0.000000 0.000000 20.023462 22.294214 10.989595 38.085899 12.398828 -0.373671 -5.402148 31.715854 -0.335798 0.000000 0.000000 0.000000 
0.209802 0.846925 0.729429 -0.177748 -2.021180 -1.693189 -2.329922 -1.850013 -16.856558 -19.497909 9.237041 42.826132 11.697879 25.223890 -14.610391 0.000000 0.000000 0.000000 4.807164 5.699979 -37.715927 15.695468 -5.675248 40.974746 -7.834160 -19.428150 6.244567 0.000000 0.000000 0.000000 2.842614 -2.041698 33.483383 2.705191 -1.111528 -3.915155 -6.204721 2.008252 6.629523 11.287399 -2.581883 -32.138056 0.000000 0.000000 0.000000 -10.415500 -29.542569 12.003715 -22.682364 -21.747215 0.706936 9.968878 -23.073459 -1.242172 0.000000 0.000000 0.000000 20.650688 20.080625 10.194289 38.253215 12.251762 -0.464063 -4.474488 30.728865 -0.034300 0.000000 0.000000 0.000000 
0.212903 0.858937 0.738684 -0.449558 -0.969491 -1.942835 -2.785674 -1.526821 -13.323308 -18.685605 7.825752 38.923416 11.160420 23.689903 -15.181025 0.000000 0.000000 0.000000 5.888692 5.377264 -34.524108 13.669892 -4.546949 37.248738 -6.874865 -17.420354 6.338333 0.000000 0.000000 0.000000 3.885232 -2.257643 30.600282 2.294848 -0.929693 -3.721669 -5.870346 2.345960 6.741896 11.178092 -2.568640 -31.488751 0.000000 0.000000 0.000000 -12.264130 -28.290431 11.589979 -24.804861 -21.386442 0.854950 7.750309 -22.668204 -0.791678 0.000000 0.000000 0.000000 21.240142 18.430558 9.549395 38.099265 12.849624 -0.376900 -3.357848 28.657979 0.255762 0.000000 0.000000 0.000000 
0.216165 0.866624 0.745886 -0.900894 0.856220 -2.099931 -2.496077 -1.200188 -10.692067 -17.869291 6.658019 36.783196 10.628690 21.831511 -15.601074 0.000000 0.000000 0.000000 6.897546 5.027635 -31.735841 11.466805 -3.628732 34.216432 -6.419963 -16.357563 6.219625 0.000000 0.000000 0.000000 4.886840 -2.455629 27.910602 2.474146 -1.043961 -2.777343 -5.999587 2.359299 5.786359 11.516752 -2.875034 -29.782332 0.000000 0.000000 0.000000 -14.144232 -27.719796 11.381312 -26.406027 -20.619015 0.962916 6.759132 -22.608279 -0.610829 0.000000 0.000000 0.000000 22.990532 17.417353 9.495738 37.343799 12.812377 -0.444279 -2.306171 27.542523 0.496196 0.000000 0.000000 0.000000 
0.220442 0.871820 0.751056 -1.107596 1.974536 -2.420118 -1.933335 -0.955465 -8.914479 -18.106068 6.439228 36.314919 10.786497 21.958315 -14.299562 0.000000 0.000000 0.000000 7.346919 4.797066 -30.110210 10.209851 -3.163556 32.825623 -6.484068 -16.403947 6.181099 0.000000 0.000000 0.000000 5.511655 -2.504470 26.080373 2.358737 -0.999278 -2.494331 -5.957026 2.625491 5.526077 11.718754 -3.005130 -29.023356 0.000000 0.000000 0.000000 -16.433274 -27.147168 11.197416 -27.226860 -20.283084 1.063601 5.345118 -23.140018 -0.358304 0.000000 0.000000 0.000000 23.774027 16.483643 9.315951 37.800849 13.165505 -0.414119 -1.511674 27.919696 0.716231 0.000000 0.000000 0.000000 
0.226191 0.877334 0.754026 -1.586737 3.050263 -2.660193 -1.318150 -0.732646 -7.229531 -17.905945 6.000505 35.506396 10.620486 21.242454 -12.992727 0.000000 0.000000 0.000000 8.165992 4.612122 -28.163155 8.363041 -2.395077 30.318830 -6.465402 -16.247467 5.399664 0.000000 0.000000 0.000000 6.146799 -2.533639 24.391146 2.657796 -1.132688 -2.436883 -6.024772 2.912032 4.571980 12.051636 -3.171637 -28.228929 0.000000 0.000000 0.000000 -18.452018 -26.610902 10.878167 -29.941467 -19.154766 1.186484 4.750469 -24.157443 -0.282112 0.000000 0.000000 0.000000 24.591583 15.980976 9.410017 38.650157 12.667471 -0.572411 -0.298662 27.928927 1.013818 0.000000 0.000000 0.000000 
0.232685 0.881704 0.754359 -1.835056 3.601313 -3.066396 -0.915996 -0.543519 -5.586317 -18.123475 5.843854 34.462218 10.682266 21.268258 -11.605888 0.000000 0.000000 0.000000 8.309922 4.361693 -26.568541 7.704839 -2.129438 28.878725 -6.718731 -16.746354 5.557405 0.000000 0.000000 0.000000 6.835810 -2.601102 23.476327 2.344835 -0.991852 -2.322599 -5.872443 3.204069 4.517364 12.393927 -3.361034 -27.781454 0.000000 0.000000 0.000000 -20.597318 -26.724219 10.999671 -31.676362 -17.412472 0.995922 4.310118 -26.081304 -0.236118 0.000000 0.000000 0.000000 24.768461 15.581209 9.383991 39.288898 12.690779 -0.615470 0.904391 27.937399 1.308619 0.000000 0.000000 0.000000 
0.238815 0.887715 0.750888 -2.053633 4.397994 -3.122031 -0.489948 -0.376657 -4.052694 -17.801081 5.333286 32.539475 10.966907 21.776980 -10.142402 0.000000 0.000000 0.000000 8.403724 4.093577 -25.023721 6.503342 -1.665673 26.885236 -6.550300 -16.351084 5.283755 0.000000 0.000000 0.000000 7.368268 -2.573827 22.033280 2.249647 -0.957297 -2.069894 -6.022679 3.035156 4.533674 12.468952 -3.331945 -27.944768 0.000000 0.000000 0.000000 -21.447012 -26.327089 10.770435 -34.147374 -16.029624 0.804508 3.661219 -27.641539 -0.120322 0.000000 0.000000 0.000000 24.436010 15.518464 9.389600 40.482898 12.570929 -0.639704 1.306398 28.052290 1.421642 0.000000 0.000000 0.000000 
0.243653 0.893899 0.743171 -2.355840 5.552058 -3.187152 0.437175 -0.247977 -2.839936 -17.352505 4.836875 31.500904 11.253632 22.204718 -8.905516 0.000000 0.000000 0.000000 8.237689 3.853188 -24.028956 5.642207 -1.359894 24.436119 -6.830211 -16.899021 6.915784 0.000000 0.000000 0.000000 7.601816 -2.609348 21.493606 2.471665 -1.052493 -2.073458 -6.206084 3.013717 4.526109 12.981570 -3.422955 -28.408241 0.000000 0.000000 0.000000 -22.071158 -26.228550 10.567220 -36.562454 -14.273146 0.477251 2.445227 -28.835545 0.144868 0.000000 0.000000 0.000000 24.072994 14.722169 9.042507 41.671882 12.837507 -0.568420 2.181744 28.310113 1.674131 0.000000 0.000000 0.000000 
